<svg width="90" height="59" viewBox="0 0 90 59" fill="none" xmlns="http://www.w3.org/2000/svg">
<g opacity="0.3">
<path d="M68.7349 0.0023929C79.8396 -0.133029 83.4057 5.51333 83.8007 8.35343C78.6095 5.32898 69.5625 4.83623 65.6879 4.96791V2.48517L61.061 5.30646C56.8629 5.75787 51.4122 6.81116 49.2116 7.28137V4.34722C56.0278 1.14225 65.0673 0.115266 68.7349 0.0023929Z" fill="white"/>
<path d="M44.6975 8.69202V6.32213C38.2085 9.25628 35.1239 11.4193 33.9766 12.4726C37.9941 10.6669 42.7978 9.19985 44.6975 8.69202Z" fill="white"/>
</g>
<path opacity="0.6" d="M8.97693 44.6917C9.06721 36.7018 15.8609 27.8956 19.2465 24.4912C18.4791 29.1859 22.4251 34.1965 24.4941 36.115C28.0602 40.1325 28.7636 44.1462 28.6696 45.6509C28.6696 50.0296 25.0959 54.0584 23.3091 55.5255C11.7531 55.3449 8.93932 48.2277 8.97693 44.6917Z" fill="white"/>
<path opacity="0.6" d="M44.6388 8.74816C41.4338 9.56069 36.2313 11.5695 34.0307 12.4723L35.2156 13.8265C28.1737 17.7571 27.0151 22.0096 27.316 23.6446C27.4966 27.5267 31.3411 31.958 33.2407 33.6884C36.0846 36.9837 36.7956 40.9674 36.7956 42.5473C36.8858 48.0996 32.3567 53.2118 30.0809 55.0739C36.536 54.1259 42.062 52.1209 44.0181 51.2369C42.4833 33.4514 43.7924 21.8578 44.6388 18.2841L49.1528 15.6321C51.8613 25.2471 51.3346 41.3436 50.7328 48.1899C53.8926 46.61 58.2186 43.958 59.9866 42.8294C59.4449 32.6276 60.5133 22.2152 61.1151 18.2841L65.7985 15.6321C67.3784 20.8685 67.811 31.9957 67.8298 36.9047C84.3965 22.4145 85.3407 11.908 83.742 8.46603C78.7313 5.35132 69.6919 4.83596 65.7985 4.96762V10.4409L61.1151 13.2058V5.30618C58.4518 5.48674 52.0306 6.69802 49.1528 7.28109V10.4409L44.6388 13.0365V8.74816Z" fill="white"/>
<path d="M0.00645499 45.6509C-0.354671 34.14 14.5267 22.7984 22.0126 18.5664C20.7035 19.9658 19.5863 23.0993 19.1913 24.4911C9.42959 35.607 8.50796 42.5474 9.09103 46.0458C10.355 53.8101 19.0596 55.6383 23.2539 55.5818C22.7123 56.2589 20.8088 57.632 19.9248 58.2338C4.26097 57.5567 0.119307 49.5631 0.00645499 45.6509Z" fill="white"/>
<path d="M26.1895 58.1201C27.0471 57.7138 29.1424 55.9571 30.0828 55.1295C36.0414 54.4073 41.9323 52.1954 44.1329 51.1797C44.0765 52.4211 44.3586 53.9446 44.5843 55.0167C36.9104 57.1608 29.8383 58.0448 26.1895 58.1201Z" fill="white"/>
<path d="M49.9453 53.2117C50.3967 51.7672 50.6224 49.2619 50.6788 48.1898C53.2067 47.0613 57.939 44.1835 59.9891 42.8857L60.3841 48.8669C56.2763 50.9434 51.7133 52.6286 49.9453 53.2117Z" fill="white"/>
<path d="M81.5405 20.7669C85.0615 14.402 84.5123 9.95192 83.7975 8.52246C92.5097 13.3977 90.1737 22.2904 87.9166 26.1274C82.7255 35.4715 72.1738 42.6225 67.5469 45.03C67.8177 43.721 67.8478 39.0677 67.829 36.9047C75.2772 30.7656 80.0734 23.5882 81.5405 20.7669Z" fill="white"/>
<g opacity="0.3">
<path d="M68.7345 0.0023929C79.8391 -0.133029 83.4052 5.51333 83.8002 8.35343C78.609 5.32898 69.562 4.83623 65.6875 4.96791V2.48517L61.0605 5.30646C56.8624 5.75787 51.4117 6.81116 49.2111 7.28137V4.34722C56.0273 1.14225 65.0668 0.115266 68.7345 0.0023929Z" fill="#0049F8"/>
<path d="M44.697 8.69202V6.32213C38.208 9.25628 35.1234 11.4193 33.9761 12.4726C37.9936 10.6669 42.7973 9.19985 44.697 8.69202Z" fill="#0049F8"/>
</g>
<path opacity="0.6" d="M8.97791 44.6917C9.06819 36.7018 15.8619 27.8956 19.2474 24.4912C18.48 29.1859 22.4261 34.1965 24.495 36.115C28.0612 40.1325 28.7646 44.1462 28.6706 45.6509C28.6706 50.0296 25.0969 54.0584 23.3101 55.5255C11.7541 55.3449 8.94029 48.2277 8.97791 44.6917Z" fill="#0049F8"/>
<path opacity="0.6" d="M44.6393 8.74865C41.4343 9.56118 36.2318 11.5699 34.0312 12.4728L35.2161 13.827C28.1742 17.7576 27.0156 22.0101 27.3165 23.6451C27.4971 27.5272 31.3415 31.9585 33.2412 33.6889C36.0851 36.9842 36.796 40.9679 36.796 42.5478C36.8863 48.1001 32.3572 53.2123 30.0814 55.0744C36.5365 54.1264 42.0625 52.1214 44.0186 51.2374C42.4838 33.4519 43.7929 21.8583 44.6393 18.2846L49.1533 15.6326C51.8618 25.2476 51.3351 41.344 50.7333 48.1904C53.8931 46.6105 58.2191 43.9584 59.9871 42.8299C59.4454 32.6281 60.5138 22.2156 61.1156 18.2846L65.799 15.6326C67.3789 20.8689 67.8115 31.9961 67.8303 36.9052C84.397 22.415 85.3412 11.9085 83.7424 8.46652C78.7318 5.35181 69.6924 4.83645 65.799 4.96811V10.4414L61.1156 13.2063V5.30667C58.4523 5.48723 52.0311 6.69851 49.1533 7.28157V10.4414L44.6393 13.037V8.74865Z" fill="#0049F8"/>
<path d="M0.00645499 45.6509C-0.354671 34.14 14.5267 22.7984 22.0126 18.5664C20.7035 19.9658 19.5863 23.0993 19.1913 24.4911C9.42959 35.607 8.50796 42.5474 9.09103 46.0458C10.355 53.8101 19.0596 55.6383 23.2539 55.5818C22.7123 56.2589 20.8088 57.632 19.9248 58.2338C4.26097 57.5567 0.119307 49.5631 0.00645499 45.6509Z" fill="#0049F8"/>
<path d="M26.189 58.1206C27.0466 57.7143 29.1419 55.9576 30.0824 55.13C36.0409 54.4077 41.9318 52.1958 44.1324 51.1802C44.076 52.4215 44.3581 53.945 44.5838 55.0171C36.9099 57.1613 29.8378 58.0453 26.189 58.1206Z" fill="#0049F8"/>
<path d="M49.9443 53.2117C50.3957 51.7672 50.6214 49.2619 50.6779 48.1898C53.2058 47.0613 57.938 44.1835 59.9882 42.8857L60.3831 48.8669C56.2753 50.9434 51.7123 52.6286 49.9443 53.2117Z" fill="#0049F8"/>
<path d="M81.5415 20.7674C85.0625 14.4025 84.5133 9.95241 83.7985 8.52295C92.5107 13.3982 90.1747 22.2909 87.9176 26.1278C82.7264 35.472 72.1748 42.623 67.5479 45.0305C67.8187 43.7215 67.8488 39.0682 67.83 36.9052C75.2782 30.7661 80.0744 23.5887 81.5415 20.7674Z" fill="#0049F8"/>
</svg>
