<svg width="94" height="62" viewBox="0 0 94 62" fill="none" xmlns="http://www.w3.org/2000/svg">
<path fill-rule="evenodd" clip-rule="evenodd" d="M71.7875 0.236874C83.3856 0.0954341 87.1102 5.9927 87.5227 8.95902C83.9702 6.88929 78.6889 5.95474 74.331 5.59503C78.701 5.96144 84.0025 6.92545 87.4635 9.07691C88.5501 11.4163 88.512 16.8801 83.5849 24.5818C84.287 23.5042 84.8169 22.5962 85.1661 21.9245C88.8436 15.2768 88.27 10.629 87.5235 9.13599C96.6228 14.2278 94.183 23.5157 91.8256 27.5232C86.4037 37.2826 75.3832 44.7514 70.5507 47.2659C70.8335 45.8986 70.865 41.0386 70.8453 38.7795C74.7827 35.5341 78.0105 32.0109 80.4371 28.9405C78.0067 31.9684 74.8663 35.2614 70.8443 38.7793C70.8247 33.6521 70.3728 22.0305 68.7227 16.5614L63.8312 19.3313C63.2026 23.437 62.0868 34.3122 62.6526 44.9673C60.9369 46.0624 56.9151 48.531 53.7066 50.199C56.4492 48.851 60.7072 46.2573 62.6527 45.0257L63.0652 51.2726C58.7749 53.4414 54.0091 55.2015 52.1626 55.8105C52.634 54.3018 52.8698 51.6852 52.9287 50.5654L52.99 50.5379C53.6176 43.3715 54.1625 26.5906 51.3374 16.5614L46.6227 19.3313C45.7388 23.0635 44.3717 35.1707 45.974 53.744C45.9984 53.7329 46.0225 53.722 46.0461 53.7111C46.0616 53.704 46.077 53.697 46.0922 53.6899C46.0332 54.9865 46.3279 56.5777 46.5636 57.6974C38.5487 59.9369 31.1624 60.8602 27.3513 60.9388C28.2471 60.5144 30.4355 58.6796 31.4178 57.8153C37.0459 57.1331 42.6163 55.1784 45.3303 54.0261C42.879 55.0416 37.5498 56.8554 31.4179 57.7559C33.7949 55.8111 38.5252 50.4717 38.431 44.6727C38.431 43.0225 37.6884 38.8618 34.7181 35.4201C32.7341 33.6128 28.7187 28.9846 28.5301 24.93C28.2158 23.2224 29.4259 18.7808 36.7808 14.6756L35.5432 13.2612C37.8416 12.3182 43.2753 10.2202 46.6227 9.37157V13.8505L51.3374 11.1396V7.8393L51.3965 7.82733V4.77478C58.5157 1.42739 67.9568 0.354763 71.7875 0.236874ZM57.3743 6.70151C55.8384 6.97014 54.307 7.25666 53.0296 7.50437C54.2344 7.26538 55.7516 6.9796 57.3743 6.70151ZM63.6484 5.79012C63.7111 5.78515 63.7721 5.78065 63.8312 5.77664V14.0273L68.7227 11.1396V5.42304C69.1759 5.40771 69.6959 5.40078 70.2694 5.40506C69.6483 5.3995 69.0882 5.40663 68.6051 5.42305V2.82998L63.7725 5.77665L63.6484 5.79012ZM46.6818 9.31265V6.83745C39.9045 9.90198 36.6828 12.1611 35.4845 13.2612C39.6805 11.3753 44.6977 9.84305 46.6818 9.31265ZM9.37672 46.9122C9.41845 43.2192 10.8313 39.3593 12.7 35.8952C9.66947 41.3018 9.16008 45.1644 9.40695 47.6595C9.38377 47.3972 9.37422 47.1471 9.37672 46.9122ZM20.0441 25.8137C19.8617 26.0214 19.6822 26.2277 19.5057 26.4327C19.7138 26.211 19.9133 26.0044 20.1026 25.8141C19.3011 30.7173 23.4225 35.9506 25.5834 37.9543C29.308 42.1504 30.0427 46.3425 29.9445 47.9141C29.9445 52.4873 26.212 56.6952 24.3458 58.2274C21.7495 58.1869 19.5757 57.811 17.7631 57.2093C20.1608 58.0334 22.5813 58.3089 24.2873 58.286C23.7215 58.9932 21.7335 60.4272 20.8102 61.0559C4.45032 60.3486 0.124608 51.9998 0.00674183 47.9137C-0.370432 35.8913 15.1723 24.0457 22.9908 19.6257C21.6235 21.0872 20.4566 24.36 20.0441 25.8137ZM14.625 55.7518C11.4802 53.7829 10.0463 50.9947 9.56891 48.7339C10.2317 52.0469 12.2239 54.2821 14.625 55.7518Z" fill="white"/>
</svg>
